<svg xmlns="http://www.w3.org/2000/svg" 
  xmlns:xlink="http://www.w3.org/1999/xlink"
  style="margin: auto; background: transparent; display: block; z-index: 1; position: relative; shape-rendering: auto;" width="1049" height="1329" preserveAspectRatio="xMidYMid"
  viewBox="0 0 1049 1329">
  <g transform="">
    <path id="path0" d="M 505.69931676693807 1241.3300119802059
c 0 26.993419332306953 -6.6047728153517005 7.753428957151997 -14.358201772503698 7.753428957151997
S 476.98291322193063 1268.3234313125129 476.98291322193063 1241.3300119802059
s 6.6047728153517005 -7.753428957151997 14.358201772503698 -7.753428957151997
S 505.69931676693807 1214.336592647899 505.69931676693807 1241.3300119802059
z" fill="none" stroke="none"></path>
    <circle cx="0" cy="0" r="3.8652004477012865" fill="#00ffff">
      <animateMotion begin="-5.156375300624538s" dur="10s" repeatCount="indefinite">
        <mpath xlink:href="#path0"></mpath>
      </animateMotion>
    </circle>
    <path id="path1" d="M 588.771606644837 1244.242070236515
c 0 32.68871602098876 -7.998302856199375 9.389312048581877 -17.387614904781252 9.389312048581877
S 553.9963768352745 1276.9307862575038 553.9963768352745 1244.242070236515
s 7.998302856199375 -9.389312048581877 17.387614904781252 -9.389312048581877
S 588.771606644837 1211.5533542155263 588.771606644837 1244.242070236515
z" fill="none" stroke="none"></path>
    <circle cx="0" cy="0" r="5.836213172564599" fill="#ffff00">
      <animateMotion begin="-6.89578151191647s" dur="10s" repeatCount="indefinite">
        <mpath xlink:href="#path1"></mpath>
      </animateMotion>
    </circle>
    <path id="path2" d="M 920.8631050928226 258.4619969849673
c 0 21.92722009898458 -5.365170875283461 6.298244070984933 -11.663414946268393 6.298244070984933
S 897.5362752002858 280.3892170839519 897.5362752002858 258.4619969849673
s 5.365170875283461 -6.298244070984933 11.663414946268393 -6.298244070984933
S 920.8631050928226 236.53477688598272 920.8631050928226 258.4619969849673
z" fill="none" stroke="none"></path>
    <circle cx="0" cy="0" r="5.075164872766215" fill="#ff00ff">
      <animateMotion begin="-8.798250029206612s" dur="10s" repeatCount="indefinite">
        <mpath xlink:href="#path2"></mpath>
      </animateMotion>
    </circle>
    <path id="path3" d="M 659.6312574198909 933.0053578415847
c 0 32.80773383550017 -8.027424236345787 9.423498016579838 -17.450922252925626 9.423498016579838
S 624.7294129140397 965.8130916770848 624.7294129140397 933.0053578415847
s 8.027424236345787 -9.423498016579838 17.450922252925626 -9.423498016579838
S 659.6312574198909 900.1976240060845 659.6312574198909 933.0053578415847
z" fill="none" stroke="none"></path>
    <circle cx="0" cy="0" r="4.630501624688261" fill="#ffff00">
      <animateMotion begin="-6.374047453299201s" dur="10s" repeatCount="indefinite">
        <mpath xlink:href="#path3"></mpath>
      </animateMotion>
    </circle>
    <path id="path4" d="M 164.34772565384887 806.9203059850256
c 0 29.061695754935368 -7.110840450675674 8.34750835514101 -15.458348805816684 8.34750835514101
S 133.4310280422155 835.982001739961 133.4310280422155 806.9203059850256
s 7.110840450675674 -8.34750835514101 15.458348805816684 -8.34750835514101
S 164.34772565384887 777.8586102300902 164.34772565384887 806.9203059850256
z" fill="none" stroke="none"></path>
    <circle cx="0" cy="0" r="5.68754441536232" fill="#00ff00">
      <animateMotion begin="-3.158140071433575s" dur="10s" repeatCount="indefinite">
        <mpath xlink:href="#path4"></mpath>
      </animateMotion>
    </circle>
    <path id="path5" d="M 1052.5809723177697 1313.0017033763186
c 0 34.02059231129848 -8.324187480424095 9.771872259628287 -18.096059740052382 9.771872259628287
S 1016.3888528376649 1347.022295687617 1016.3888528376649 1313.0017033763186
s 8.324187480424095 -9.771872259628287 18.096059740052382 -9.771872259628287
S 1052.5809723177697 1278.98111106502 1052.5809723177697 1313.0017033763186
z" fill="none" stroke="none"></path>
    <circle cx="0" cy="0" r="4.484503971849017" fill="#ff00ff">
      <animateMotion begin="-8.928514592449178s" dur="10s" repeatCount="indefinite">
        <mpath xlink:href="#path5"></mpath>
      </animateMotion>
    </circle>
    <path id="path6" d="M 421.3561735756699 446.1573388117561
c 0 33.015587651950014 -8.0782820850516 9.483200708538835 -17.561482793590432 9.483200708538835
S 386.2332079884891 479.1729264637061 386.2332079884891 446.1573388117561
s 8.0782820850516 -9.483200708538835 17.561482793590432 -9.483200708538835
S 421.3561735756699 413.1417511598061 421.3561735756699 446.1573388117561
z" fill="none" stroke="none"></path>
    <circle cx="0" cy="0" r="3.8003421695955293" fill="#ffff00">
      <animateMotion begin="-8.582516817087866s" dur="10s" repeatCount="indefinite">
        <mpath xlink:href="#path6"></mpath>
      </animateMotion>
    </circle>
    <path id="path7" d="M 199.9783746758824 731.1989289309071
c 0 32.108838823784126 -7.856418010074838 9.222751577044377 -17.079169587119218 9.222751577044377
S 165.82003550164396 763.3077677546912 165.82003550164396 731.1989289309071
s 7.856418010074838 -9.222751577044377 17.079169587119218 -9.222751577044377
S 199.9783746758824 699.0900901071229 199.9783746758824 731.1989289309071
z" fill="none" stroke="none"></path>
    <circle cx="0" cy="0" r="4.579454848645507" fill="#7f00ff">
      <animateMotion begin="-8.720989787412902s" dur="10s" repeatCount="indefinite">
        <mpath xlink:href="#path7"></mpath>
      </animateMotion>
    </circle>
    <path id="path8" d="M 328.4799706924371 707.2389835526718
c 0 37.079627957197346 -9.072674925697221 10.650531434514132 -19.723206360211353 10.650531434514132
S 289.0335579720144 744.3186115098691 289.0335579720144 707.2389835526718
s 9.072674925697221 -10.650531434514132 19.723206360211353 -10.650531434514132
S 328.4799706924371 670.1593555954745 328.4799706924371 707.2389835526718
z" fill="none" stroke="none"></path>
    <circle cx="0" cy="0" r="3.931025254714223" fill="#ffff00">
      <animateMotion begin="-8.137455074655628s" dur="10s" repeatCount="indefinite">
        <mpath xlink:href="#path8"></mpath>
      </animateMotion>
    </circle>
    <path id="path9" d="M 428.19255311803823 643.7188800382787
c 0 28.035573687337312 -6.859768029880406 8.052771165511782 -14.912539195392187 8.052771165511782
S 398.36747472725386 671.754453725616 398.36747472725386 643.7188800382787
s 6.859768029880406 -8.052771165511782 14.912539195392187 -8.052771165511782
S 428.19255311803823 615.6833063509414 428.19255311803823 643.7188800382787
z" fill="none" stroke="none"></path>
    <circle cx="0" cy="0" r="4.681331619675421" fill="#ff00ff">
      <animateMotion begin="-6.636606112855201s" dur="10s" repeatCount="indefinite">
        <mpath xlink:href="#path9"></mpath>
      </animateMotion>
    </circle>
    <path id="path10" d="M 920.9098825623789 154.03907090071996
c 0 27.12780553849171 -6.637654546652226 7.792029250417833 -14.429683797070059 7.792029250417833
S 892.0505149682388 181.16687643921168 892.0505149682388 154.03907090071996
s 6.637654546652226 -7.792029250417833 14.429683797070059 -7.792029250417833
S 920.9098825623789 126.91126536222825 920.9098825623789 154.03907090071996
z" fill="none" stroke="none"></path>
    <circle cx="0" cy="0" r="3.218582941891506" fill="#00ffff">
      <animateMotion begin="-3.216145721657966s" dur="10s" repeatCount="indefinite">
        <mpath xlink:href="#path10"></mpath>
      </animateMotion>
    </circle>
    <path id="path11" d="M 892.742902725258 579.0137694445987
c 0 27.514291116822495 -6.732220166882099 7.903041065470291 -14.63526123235239 7.903041065470291
S 863.4723802605532 606.5280605614212 863.4723802605532 579.0137694445987
s 6.732220166882099 -7.903041065470291 14.63526123235239 -7.903041065470291
S 892.742902725258 551.4994783277762 892.742902725258 579.0137694445987
z" fill="none" stroke="none"></path>
    <circle cx="0" cy="0" r="3.6179593190539747" fill="#ff8000">
      <animateMotion begin="-4.584697246528111s" dur="10s" repeatCount="indefinite">
        <mpath xlink:href="#path11"></mpath>
      </animateMotion>
    </circle>
    <path id="path12" d="M 806.1759999241435 423.5243800241737
c 0 19.77587949419688 -4.838779025175832 5.680305812162934 -10.519084837338767 5.680305812162934
S 785.1378302494661 443.3002595183706 785.1378302494661 423.5243800241737
s 4.838779025175832 -5.680305812162934 10.519084837338767 -5.680305812162934
S 806.1759999241435 403.7485005299768 806.1759999241435 423.5243800241737
z" fill="none" stroke="none"></path>
    <circle cx="0" cy="0" r="5.7208483583059575" fill="#ff8000">
      <animateMotion begin="-0.9423286273778797s" dur="10s" repeatCount="indefinite">
        <mpath xlink:href="#path12"></mpath>
      </animateMotion>
    </circle>
    <path id="path13" d="M 224.13785724663475 61.85216186026483
c 0 29.889949786774988 -7.313498352083241 8.585411108967284 -15.898909461050525 8.585411108967284
S 192.3400383245337 91.74211164703982 192.3400383245337 61.85216186026483
s 7.313498352083241 -8.585411108967284 15.898909461050525 -8.585411108967284
S 224.13785724663475 31.96221207348984 224.13785724663475 61.85216186026483
z" fill="none" stroke="none"></path>
    <circle cx="0" cy="0" r="4.169299576228871" fill="#ffff00">
      <animateMotion begin="-8.842570610641133s" dur="10s" repeatCount="indefinite">
        <mpath xlink:href="#path13"></mpath>
      </animateMotion>
    </circle>
    <path id="path14" d="M 133.8981350060444 1196.6107775379858
c 0 27.851319592228023 -6.814684581077069 7.99984711691656 -14.81453169799363 7.99984711691656
S 104.26907161005715 1224.4620971302138 104.26907161005715 1196.6107775379858
s 6.814684581077069 -7.99984711691656 14.81453169799363 -7.99984711691656
S 133.8981350060444 1168.7594579457577 133.8981350060444 1196.6107775379858
z" fill="none" stroke="none"></path>
    <circle cx="0" cy="0" r="5.343255687686161" fill="#ffff00">
      <animateMotion begin="-2.117531064037401s" dur="10s" repeatCount="indefinite">
        <mpath xlink:href="#path14"></mpath>
      </animateMotion>
    </circle>
    <path id="path15" d="M 316.96964314674136 35.342424861613026
c 0 31.527400895093262 -7.714151282841968 9.055742810292745 -16.769894093134713 9.055742810292745
S 283.4298549604719 66.86982575670629 283.4298549604719 35.342424861613026
s 7.714151282841968 -9.055742810292745 16.769894093134713 -9.055742810292745
S 316.96964314674136 3.815023966519764 316.96964314674136 35.342424861613026
z" fill="none" stroke="none"></path>
    <circle cx="0" cy="0" r="5.928076440266183" fill="#ff8000">
      <animateMotion begin="-6.971000430062128s" dur="10s" repeatCount="indefinite">
        <mpath xlink:href="#path15"></mpath>
      </animateMotion>
    </circle>
    <path id="path16" d="M 342.6134791171531 777.0953161095357
c 0 36.815531116369925 -9.0080554859203 10.574673831297744 -19.582729317218043 10.574673831297744
S 303.448020482717 813.9108472259056 303.448020482717 777.0953161095357
s 9.0080554859203 -10.574673831297744 19.582729317218043 -10.574673831297744
S 342.6134791171531 740.2797849931658 342.6134791171531 777.0953161095357
z" fill="none" stroke="none"></path>
    <circle cx="0" cy="0" r="5.207769077702131" fill="#ff00ff">
      <animateMotion begin="-4.196462971123132s" dur="10s" repeatCount="indefinite">
        <mpath xlink:href="#path16"></mpath>
      </animateMotion>
    </circle>
    <path id="path17" d="M 62.281910451213705 882.2811017051073
c 0 36.43064248667547 -8.913880608441868 10.464120714257847 -19.378001322699717 10.464120714257847
S 23.52590780581427 918.7117441917827 23.52590780581427 882.2811017051073
s 8.913880608441868 -10.464120714257847 19.378001322699717 -10.464120714257847
S 62.281910451213705 845.8504592184319 62.281910451213705 882.2811017051073
z" fill="none" stroke="none"></path>
    <circle cx="0" cy="0" r="4.696882725552047" fill="#ff8000">
      <animateMotion begin="-7.008286790203549s" dur="10s" repeatCount="indefinite">
        <mpath xlink:href="#path17"></mpath>
      </animateMotion>
    </circle>
    <path id="path18" d="M 394.9557472609783 1325.2863731717196
c 0 34.09058311107821 -8.341312888880838 9.79197599999055 -18.133288888871387 9.79197599999055
S 358.6891694832355 1359.3769562827977 358.6891694832355 1325.2863731717196
s 8.341312888880838 -9.79197599999055 18.133288888871387 -9.79197599999055
S 394.9557472609783 1291.1957900606415 394.9557472609783 1325.2863731717196
z" fill="none" stroke="none"></path>
    <circle cx="0" cy="0" r="3.4435662584081372" fill="#ff8000">
      <animateMotion begin="-0.2729173130991036s" dur="10s" repeatCount="indefinite">
        <mpath xlink:href="#path18"></mpath>
      </animateMotion>
    </circle>
    <path id="path19" d="M 35.56303624390837 900.5166007151986
c 0 33.68715357385675 -8.242601406369204 9.676097303129067 -17.918698709498273 9.676097303129067
S -0.27436117508817404 934.2037542890554 -0.27436117508817404 900.5166007151986
s 8.242601406369204 -9.676097303129067 17.918698709498273 -9.676097303129067
S 35.56303624390837 866.8294471413418 35.56303624390837 900.5166007151986
z" fill="none" stroke="none"></path>
    <circle cx="0" cy="0" r="4.623280659098615" fill="#7f00ff">
      <animateMotion begin="-5.561636838181123s" dur="10s" repeatCount="indefinite">
        <mpath xlink:href="#path19"></mpath>
      </animateMotion>
    </circle>
    <path id="path20" d="M 696.3718240627959 868.7862652007054
c 0 30.349653659123092 -7.425979086806713 8.717453710599186 -16.1434327974059 8.717453710599186
S 664.084958467984 899.1359188598285 664.084958467984 868.7862652007054
s 7.425979086806713 -8.717453710599186 16.1434327974059 -8.717453710599186
S 696.3718240627959 838.4366115415824 696.3718240627959 868.7862652007054
z" fill="none" stroke="none"></path>
    <circle cx="0" cy="0" r="4.213630208893996" fill="#00ffff">
      <animateMotion begin="-1.5175880819937726s" dur="10s" repeatCount="indefinite">
        <mpath xlink:href="#path20"></mpath>
      </animateMotion>
    </circle>
    <path id="path21" d="M 111.81678196439063 342.7002436992993
c 0 19.681364355305814 -4.81565298055355 5.653157846736777 -10.468810827290326 5.653157846736777
S 90.87916030980998 362.38160805460507 90.87916030980998 342.7002436992993
s 4.81565298055355 -5.653157846736777 10.468810827290326 -5.653157846736777
S 111.81678196439063 323.0188793439935 111.81678196439063 342.7002436992993
z" fill="none" stroke="none"></path>
    <circle cx="0" cy="0" r="4.612525235066931" fill="#ffff00">
      <animateMotion begin="-6.12960671394071s" dur="10s" repeatCount="indefinite">
        <mpath xlink:href="#path21"></mpath>
      </animateMotion>
    </circle>
    <path id="path22" d="M 243.53962805345907 1211.7877076043071
c 0 29.842810844626992 -7.301964355600221 8.571871200052435 -15.873835555652656 8.571871200052435
S 211.79195694215377 1241.630518448934 211.79195694215377 1211.7877076043071
s 7.301964355600221 -8.571871200052435 15.873835555652656 -8.571871200052435
S 243.53962805345907 1181.9448967596802 243.53962805345907 1211.7877076043071
z" fill="none" stroke="none"></path>
    <circle cx="0" cy="0" r="4.11964980596193" fill="#00ffff">
      <animateMotion begin="-7.663833018615072s" dur="10s" repeatCount="indefinite">
        <mpath xlink:href="#path22"></mpath>
      </animateMotion>
    </circle>
    <path id="path23" d="M 743.2845241204193 484.07356760331385
c 0 21.84720390341856 -5.345592444453477 6.275260695662777 -11.620853140116253 6.275260695662777
S 720.0428178401869 505.9207715067324 720.0428178401869 484.07356760331385
s 5.345592444453477 -6.275260695662777 11.620853140116253 -6.275260695662777
S 743.2845241204193 462.2263636998953 743.2845241204193 484.07356760331385
z" fill="none" stroke="none"></path>
    <circle cx="0" cy="0" r="3.5985551749548184" fill="#ff8000">
      <animateMotion begin="-9.077929293504246s" dur="10s" repeatCount="indefinite">
        <mpath xlink:href="#path23"></mpath>
      </animateMotion>
    </circle>
    <path id="path24" d="M 158.20272267429777 1303.3212095304325
c 0 29.00003764186423 -7.095753891094438 8.329798046067385 -15.425551937161824 8.329798046067385
S 127.35161879997412 1332.3212471722968 127.35161879997412 1303.3212095304325
s 7.095753891094438 -8.329798046067385 15.425551937161824 -8.329798046067385
S 158.20272267429777 1274.3211718885682 158.20272267429777 1303.3212095304325
z" fill="none" stroke="none"></path>
    <circle cx="0" cy="0" r="3.3853593644577904" fill="#00ff00">
      <animateMotion begin="-2.5071306235050184s" dur="10s" repeatCount="indefinite">
        <mpath xlink:href="#path24"></mpath>
      </animateMotion>
    </circle>
    <path id="path25" d="M 47.12826599080121 500.7003303127827
c 0 26.164372339527326 -6.401920891586473 7.515298437949338 -13.917219329535811 7.515298437949338
S 19.293827331729588 526.86470265231 19.293827331729588 500.7003303127827
s 6.401920891586473 -7.515298437949338 13.917219329535811 -7.515298437949338
S 47.12826599080121 474.53595797325534 47.12826599080121 500.7003303127827
z" fill="none" stroke="none"></path>
    <circle cx="0" cy="0" r="4.445465300917512" fill="#ff00ff">
      <animateMotion begin="-5.236772155180461s" dur="10s" repeatCount="indefinite">
        <mpath xlink:href="#path25"></mpath>
      </animateMotion>
    </circle>
    <path id="path26" d="M 599.7715428956718 23.057977423295327
c 0 28.980248150649693 -7.090911781541945 8.324113830505762 -15.415025612047708 8.324113830505762
S 568.9414916715765 52.03822557394502 568.9414916715765 23.057977423295327
s 7.090911781541945 -8.324113830505762 15.415025612047708 -8.324113830505762
S 599.7715428956718 -5.922270727354366 599.7715428956718 23.057977423295327
z" fill="none" stroke="none"></path>
    <circle cx="0" cy="0" r="3.4995736124376142" fill="#00ff00">
      <animateMotion begin="-0.9963781618838641s" dur="10s" repeatCount="indefinite">
        <mpath xlink:href="#path26"></mpath>
      </animateMotion>
    </circle>
    <path id="path27" d="M 660.8079881018994 800.5219197460951
c 0 30.766759623775805 -7.528036929221739 8.837260742999433 -16.365297672221175 8.837260742999433
S 628.0773927574569 831.2886793698709 628.0773927574569 800.5219197460951
s 7.528036929221739 -8.837260742999433 16.365297672221175 -8.837260742999433
S 660.8079881018994 769.7551601223194 660.8079881018994 800.5219197460951
z" fill="none" stroke="none"></path>
    <circle cx="0" cy="0" r="5.325574356078987" fill="#00ff00">
      <animateMotion begin="-0.9225416947088094s" dur="10s" repeatCount="indefinite">
        <mpath xlink:href="#path27"></mpath>
      </animateMotion>
    </circle>
    <path id="path28" d="M 495.00145240241847 249.38335473387968
c 0 22.78160053501928 -5.574221407504717 6.543651217505539 -12.117872625010255 6.543651217505539
S 470.76570715239797 272.16495526889895 470.76570715239797 249.38335473387968
s 5.574221407504717 -6.543651217505539 12.117872625010255 -6.543651217505539
S 495.00145240241847 226.60175419886042 495.00145240241847 249.38335473387968
z" fill="none" stroke="none"></path>
    <circle cx="0" cy="0" r="5.4497414063985055" fill="#00ff00">
      <animateMotion begin="-4.776030930675448s" dur="10s" repeatCount="indefinite">
        <mpath xlink:href="#path28"></mpath>
      </animateMotion>
    </circle>
    <path id="path29" d="M 150.81614583326723 266.2738117781622
c 0 22.935874534392617 -5.611969300968406 6.58796396200639 -12.199933262974795 6.58796396200639
S 126.41627930731762 289.2096863125548 126.41627930731762 266.2738117781622
s 5.611969300968406 -6.58796396200639 12.199933262974795 -6.58796396200639
S 150.81614583326723 243.3379372437696 150.81614583326723 266.2738117781622
z" fill="none" stroke="none"></path>
    <circle cx="0" cy="0" r="3.538596159734494" fill="#ff8000">
      <animateMotion begin="-1.226753055643992s" dur="10s" repeatCount="indefinite">
        <mpath xlink:href="#path29"></mpath>
      </animateMotion>
    </circle>
    <path id="path30" d="M 170.42791063602277 518.7955340650576
c 0 22.571835795080414 -5.522895992413292 6.483399643267778 -12.00629563568107 6.483399643267778
S 146.41531936466066 541.3673698601381 146.41531936466066 518.7955340650576
s 5.522895992413292 -6.483399643267778 12.00629563568107 -6.483399643267778
S 170.42791063602277 496.2236982699772 170.42791063602277 518.7955340650576
z" fill="none" stroke="none"></path>
    <circle cx="0" cy="0" r="4.449384439053011" fill="#ff00ff">
      <animateMotion begin="-5.444571735470738s" dur="10s" repeatCount="indefinite">
        <mpath xlink:href="#path30"></mpath>
      </animateMotion>
    </circle>
  </g>
</svg>