<svg xmlns="http://www.w3.org/2000/svg" xmlns:xlink="http://www.w3.org/1999/xlink" style="margin:auto;background:#ffffff;display:block;z-index:1;position:relative" width="1240" height="1240" preserveAspectRatio="xMidYMid" viewBox="0 0 1240 1240">
<g transform=""><path id="path0" d="M 728.9364287334296 323.32769930884774
c 0 34.71949596604235 -8.495195821478447 9.97262118173557 -18.467817003214016 9.97262118173557
S 692.0007947270016 358.0471952748901 692.0007947270016 323.32769930884774
s 8.495195821478447 -9.97262118173557 18.467817003214016 -9.97262118173557
S 728.9364287334296 288.6082033428054 728.9364287334296 323.32769930884774
z" fill="none" stroke="none"></path>
<circle cx="0" cy="0" r="10.330503224165957" fill="#ebebeb">
  <animateMotion begin="-7.9031957364862375s" dur="10s" repeatCount="indefinite">
    <mpath xlink:href="#path0"></mpath>
  </animateMotion>
</circle><path id="path1" d="M 70.89208243556716 466.23519397296326
c 0 24.348260543913458 -5.957553111808611 6.993649305166631 -12.951202416975242 6.993649305166631
S 44.98967760161668 490.5834545168767 44.98967760161668 466.23519397296326
s 5.957553111808611 -6.993649305166631 12.951202416975242 -6.993649305166631
S 70.89208243556716 441.8869334290498 70.89208243556716 466.23519397296326
z" fill="none" stroke="none"></path>
<circle cx="0" cy="0" r="7.975020096676682" fill="#ebebeb">
  <animateMotion begin="-5.1039681912012025s" dur="10s" repeatCount="indefinite">
    <mpath xlink:href="#path1"></mpath>
  </animateMotion>
</circle><path id="path2" d="M 1054.2330711663114 126.5368634856184
c 0 31.76569573520242 -7.772457467123996 9.124189200536867 -16.89664666766086 9.124189200536867
S 1020.4397778309897 158.30255922082083 1020.4397778309897 126.5368634856184
s 7.772457467123996 -9.124189200536867 16.89664666766086 -9.124189200536867
S 1054.2330711663114 94.77116775041597 1054.2330711663114 126.5368634856184
z" fill="none" stroke="none"></path>
<circle cx="0" cy="0" r="13.917214795937532" fill="#f0f0f0">
  <animateMotion begin="-2.789768616217738s" dur="10s" repeatCount="indefinite">
    <mpath xlink:href="#path2"></mpath>
  </animateMotion>
</circle><path id="path3" d="M 636.775758924106 325.5106106577529
c 0 37.23626701455458 -9.111001503561226 10.69552350418057 -19.806525007741797 10.69552350418057
S 597.1627089086223 362.7468776723075 597.1627089086223 325.5106106577529
s 9.111001503561226 -10.69552350418057 19.806525007741797 -10.69552350418057
S 636.775758924106 288.27434364319834 636.775758924106 325.5106106577529
z" fill="none" stroke="none"></path>
<circle cx="0" cy="0" r="11.267849113382589" fill="#cccccc">
  <animateMotion begin="-5.107211768371524s" dur="10s" repeatCount="indefinite">
    <mpath xlink:href="#path3"></mpath>
  </animateMotion>
</circle><path id="path4" d="M 459.2604507966344 117.02424616879523
c 0 32.286530022927955 -7.899895643907903 9.273790538500583 -17.173686182408485 9.273790538500583
S 424.9130784318175 149.3107761917232 424.9130784318175 117.02424616879523
s 7.899895643907903 -9.273790538500583 17.173686182408485 -9.273790538500583
S 459.2604507966344 84.73771614586727 459.2604507966344 117.02424616879523
z" fill="none" stroke="none"></path>
<circle cx="0" cy="0" r="10.88716373107533" fill="#dddddd">
  <animateMotion begin="-7.821926497504757s" dur="10s" repeatCount="indefinite">
    <mpath xlink:href="#path4"></mpath>
  </animateMotion>
</circle><path id="path5" d="M 644.9336024614227 554.8288299585791
c 0 19.310293325201503 -4.724859005102495 5.546573614685538 -10.271432619788033 5.546573614685538
S 624.3907372218466 574.1391232837807 624.3907372218466 554.8288299585791
s 4.724859005102495 -5.546573614685538 10.271432619788033 -5.546573614685538
S 644.9336024614227 535.5185366333776 644.9336024614227 554.8288299585791
z" fill="none" stroke="none"></path>
<circle cx="0" cy="0" r="9.700975158266411" fill="#e7e7e7">
  <animateMotion begin="-9.262685907750454s" dur="10s" repeatCount="indefinite">
    <mpath xlink:href="#path5"></mpath>
  </animateMotion>
</circle><path id="path6" d="M 299.1617827781404 874.9544217527607
c 0 33.17409902878373 -8.11706678363857 9.528730572097453 -17.645797355736022 9.528730572097453
S 263.87018806666833 908.1285207815445 263.87018806666833 874.9544217527607
s 8.11706678363857 -9.528730572097453 17.645797355736022 -9.528730572097453
S 299.1617827781404 841.780322723977 299.1617827781404 874.9544217527607
z" fill="none" stroke="none"></path>
<circle cx="0" cy="0" r="12.612102881909465" fill="#dddddd">
  <animateMotion begin="-1.325568766313736s" dur="10s" repeatCount="indefinite">
    <mpath xlink:href="#path6"></mpath>
  </animateMotion>
</circle><path id="path7" d="M 1206.1434756220772 418.893673871648
c 0 33.02204620871361 -8.079862370217159 9.4850558259071 -17.56491819612426 9.4850558259071
S 1171.0136392298289 451.9157200803616 1171.0136392298289 418.893673871648
s 8.079862370217159 -9.4850558259071 17.56491819612426 -9.4850558259071
S 1206.1434756220772 385.8716276629344 1206.1434756220772 418.893673871648
z" fill="none" stroke="none"></path>
<circle cx="0" cy="0" r="12.863990474996717" fill="#ebebeb">
  <animateMotion begin="-0.38269838101110176s" dur="10s" repeatCount="indefinite">
    <mpath xlink:href="#path7"></mpath>
  </animateMotion>
</circle><path id="path8" d="M 1235.5188511871338 265.58241191490237
c 0 21.861754903824167 -5.3491527956165505 6.279440238332473 -11.628593033949024 6.279440238332473
S 1212.2616651192357 287.44416681872656 1212.2616651192357 265.58241191490237
s 5.3491527956165505 -6.279440238332473 11.628593033949024 -6.279440238332473
S 1235.5188511871338 243.7206570110782 1235.5188511871338 265.58241191490237
z" fill="none" stroke="none"></path>
<circle cx="0" cy="0" r="9.852670606867857" fill="#f0f0f0">
  <animateMotion begin="-3.8905485373732906s" dur="10s" repeatCount="indefinite">
    <mpath xlink:href="#path8"></mpath>
  </animateMotion>
</circle><path id="path9" d="M 26.988917297755194 286.98934304936586
c 0 29.547142740382373 -7.229620032221218 8.486945255216213 -15.716565287437431 8.486945255216213
S -4.444213277119671 316.5364857897482 -4.444213277119671 286.98934304936586
s 7.229620032221218 -8.486945255216213 15.716565287437431 -8.486945255216213
S 26.988917297755194 257.4422003089835 26.988917297755194 286.98934304936586
z" fill="none" stroke="none"></path>
<circle cx="0" cy="0" r="8.394763682481901" fill="#cccccc">
  <animateMotion begin="-0.5876305227763479s" dur="10s" repeatCount="indefinite">
    <mpath xlink:href="#path9"></mpath>
  </animateMotion>
</circle><path id="path10" d="M 69.77851794649227 956.9951641384781
c 0 37.4187691750745 -9.155656287518228 10.7479443375214 -19.90360062503963 10.7479443375214
S 29.971316696413012 994.4139333135527 29.971316696413012 956.9951641384781
s 9.155656287518228 -10.7479443375214 19.90360062503963 -10.7479443375214
S 69.77851794649227 919.5763949634036 69.77851794649227 956.9951641384781
z" fill="none" stroke="none"></path>
<circle cx="0" cy="0" r="8.50478556666309" fill="#f0f0f0">
  <animateMotion begin="-8.724279484986798s" dur="10s" repeatCount="indefinite">
    <mpath xlink:href="#path10"></mpath>
  </animateMotion>
</circle><path id="path11" d="M 1081.8973352617863 899.4689759056042
c 0 24.68442787161792 -6.039806819651192 7.090208005677487 -13.13001482532868 7.090208005677487
S 1055.6373056111288 924.1534037772221 1055.6373056111288 899.4689759056042
s 6.039806819651192 -7.090208005677487 13.13001482532868 -7.090208005677487
S 1081.8973352617863 874.7845480339863 1081.8973352617863 899.4689759056042
z" fill="none" stroke="none"></path>
<circle cx="0" cy="0" r="10.710202624090005" fill="#e7e7e7">
  <animateMotion begin="-0.5659239485270029s" dur="10s" repeatCount="indefinite">
    <mpath xlink:href="#path11"></mpath>
  </animateMotion>
</circle><path id="path12" d="M 65.68513861057966 466.88154164538344
c 0 30.018985936620815 -7.345071027045518 8.622474683923 -15.967545710968519 8.622474683923
S 33.75004718864261 496.90052758200426 33.75004718864261 466.88154164538344
s 7.345071027045518 -8.622474683923 15.967545710968519 -8.622474683923
S 65.68513861057966 436.8625557087626 65.68513861057966 466.88154164538344
z" fill="none" stroke="none"></path>
<circle cx="0" cy="0" r="8.125163106113456" fill="#dddddd">
  <animateMotion begin="-5.603736453633566s" dur="10s" repeatCount="indefinite">
    <mpath xlink:href="#path12"></mpath>
  </animateMotion>
</circle><path id="path13" d="M 1111.1846677507806 260.81810441452643
c 0 22.04093786676899 -5.3929954354860286 6.330907685135773 -11.723903120621802 6.330907685135773
S 1087.736861509537 282.85904228129544 1087.736861509537 260.81810441452643
s 5.3929954354860286 -6.330907685135773 11.723903120621802 -6.330907685135773
S 1111.1846677507806 238.77716654775745 1111.1846677507806 260.81810441452643
z" fill="none" stroke="none"></path>
<circle cx="0" cy="0" r="13.598124425027022" fill="#cccccc">
  <animateMotion begin="-9.637921041012842s" dur="10s" repeatCount="indefinite">
    <mpath xlink:href="#path13"></mpath>
  </animateMotion>
</circle><path id="path14" d="M 136.99539623647257 307.62294199232844
c 0 30.885870780217772 -7.557181148351156 8.871473521977446 -16.4286546703286 8.871473521977446
S 104.13808689581538 338.5088127725462 104.13808689581538 307.62294199232844
s 7.557181148351156 -8.871473521977446 16.4286546703286 -8.871473521977446
S 136.99539623647257 276.73707121211066 136.99539623647257 307.62294199232844
z" fill="none" stroke="none"></path>
<circle cx="0" cy="0" r="13.839016508454463" fill="#cccccc">
  <animateMotion begin="-8.365209096352654s" dur="10s" repeatCount="indefinite">
    <mpath xlink:href="#path14"></mpath>
  </animateMotion>
</circle><path id="path15" d="M 999.5084737467241 990.5989606388703
c 0 22.087288436516346 -5.404336532339105 6.34422114665895 -11.748557678998054 6.34422114665895
S 976.011358388728 1012.6862490753866 976.011358388728 990.5989606388703
s 5.404336532339105 -6.34422114665895 11.748557678998054 -6.34422114665895
S 999.5084737467241 968.5116722023539 999.5084737467241 990.5989606388703
z" fill="none" stroke="none"></path>
<circle cx="0" cy="0" r="10.737870282196974" fill="#f0f0f0">
  <animateMotion begin="-1.3327731309755753s" dur="10s" repeatCount="indefinite">
    <mpath xlink:href="#path15"></mpath>
  </animateMotion>
</circle><path id="path16" d="M 466.4361127209662 837.6528906540319
c 0 35.4774463652428 -8.680651770218981 10.19033033895272 -18.870982109171702 10.19033033895272
S 428.69414850262285 873.1303370192747 428.69414850262285 837.6528906540319
s 8.680651770218981 -10.19033033895272 18.870982109171702 -10.19033033895272
S 466.4361127209662 802.1754442887891 466.4361127209662 837.6528906540319
z" fill="none" stroke="none"></path>
<circle cx="0" cy="0" r="9.799592803819857" fill="#f0f0f0">
  <animateMotion begin="-6.649195875297491s" dur="10s" repeatCount="indefinite">
    <mpath xlink:href="#path16"></mpath>
  </animateMotion>
</circle><path id="path17" d="M 96.41512125486977 864.3735987675209
c 0 28.585973987121566 -6.994440443657403 8.210864868641302 -15.205305312298705 8.210864868641302
S 66.00451063027236 892.9595727546424 66.00451063027236 864.3735987675209
s 6.994440443657403 -8.210864868641302 15.205305312298705 -8.210864868641302
S 96.41512125486977 835.7876247803994 96.41512125486977 864.3735987675209
z" fill="none" stroke="none"></path>
<circle cx="0" cy="0" r="10.52804724684815" fill="#f0f0f0">
  <animateMotion begin="-5.0280549993665735s" dur="10s" repeatCount="indefinite">
    <mpath xlink:href="#path17"></mpath>
  </animateMotion>
</circle><path id="path18" d="M 125.25018337394883 677.8399040155688
c 0 21.674789714721197 -5.303405994027526 6.225737471249706 -11.529143465277231 6.225737471249706
S 102.19189644339437 699.51469373029 102.19189644339437 677.8399040155688
s 5.303405994027526 -6.225737471249706 11.529143465277231 -6.225737471249706
S 125.25018337394883 656.1651143008476 125.25018337394883 677.8399040155688
z" fill="none" stroke="none"></path>
<circle cx="0" cy="0" r="10.513743287546108" fill="#e7e7e7">
  <animateMotion begin="-3.083032180545s" dur="10s" repeatCount="indefinite">
    <mpath xlink:href="#path18"></mpath>
  </animateMotion>
</circle><path id="path19" d="M 995.471654239504 435.57787274212836
c 0 26.700662099196023 -6.533140726399026 7.669339113598857 -14.202479839997883 7.669339113598857
S 967.0666945595083 462.27853484132436 967.0666945595083 435.57787274212836
s 6.533140726399026 -7.669339113598857 14.202479839997883 -7.669339113598857
S 995.471654239504 408.87721064293237 995.471654239504 435.57787274212836
z" fill="none" stroke="none"></path>
<circle cx="0" cy="0" r="7.92285734378692" fill="#e7e7e7">
  <animateMotion begin="-0.7422119466807398s" dur="10s" repeatCount="indefinite">
    <mpath xlink:href="#path19"></mpath>
  </animateMotion>
</circle><path id="path20" d="M 269.9896459094235 1053.1877361187624
c 0 23.624826588211786 -5.780542675839054 6.785854445550195 -12.566397121389247 6.785854445550195
S 244.85685166664499 1076.8125627069742 244.85685166664499 1053.1877361187624
s 5.780542675839054 -6.785854445550195 12.566397121389247 -6.785854445550195
S 269.9896459094235 1029.5629095305505 269.9896459094235 1053.1877361187624
z" fill="none" stroke="none"></path>
<circle cx="0" cy="0" r="12.432887444459837" fill="#ebebeb">
  <animateMotion begin="-0.6956803475887896s" dur="10s" repeatCount="indefinite">
    <mpath xlink:href="#path20"></mpath>
  </animateMotion>
</circle><path id="path21" d="M 239.85848195763836 1217.765221238762
c 0 29.5149892769263 -7.221752695418137 8.477709685925639 -15.699462381343777 8.477709685925639
S 208.4595571949508 1247.2802105156884 208.4595571949508 1217.765221238762
s 7.221752695418137 -8.477709685925639 15.699462381343777 -8.477709685925639
S 239.85848195763836 1188.2502319618357 239.85848195763836 1217.765221238762
z" fill="none" stroke="none"></path>
<circle cx="0" cy="0" r="11.146179230508634" fill="#f0f0f0">
  <animateMotion begin="-5.018890281657442s" dur="10s" repeatCount="indefinite">
    <mpath xlink:href="#path21"></mpath>
  </animateMotion>
</circle><path id="path22" d="M 551.9579269764754 959.0863071272397
c 0 28.97920510217093 -7.09065656755246 8.323814231474628 -15.41447079902709 8.323814231474628
S 521.1289853784212 988.0655122294106 521.1289853784212 959.0863071272397
s 7.09065656755246 -8.323814231474628 15.41447079902709 -8.323814231474628
S 551.9579269764754 930.1071020250688 551.9579269764754 959.0863071272397
z" fill="none" stroke="none"></path>
<circle cx="0" cy="0" r="9.81483783441894" fill="#e7e7e7">
  <animateMotion begin="-1.4570361938098952s" dur="10s" repeatCount="indefinite">
    <mpath xlink:href="#path22"></mpath>
  </animateMotion>
</circle><path id="path23" d="M 468.2573418543468 193.33423735631015
c 0 33.27769656398046 -8.142415116718622 9.558487310930559 -17.700902427649183 9.558487310930559
S 432.85553699904847 226.61193392029062 432.85553699904847 193.33423735631015
s 8.142415116718622 -9.558487310930559 17.700902427649183 -9.558487310930559
S 468.2573418543468 160.05654079232968 468.2573418543468 193.33423735631015
z" fill="none" stroke="none"></path>
<circle cx="0" cy="0" r="12.482838806282068" fill="#f0f0f0">
  <animateMotion begin="-6.001241076583719s" dur="10s" repeatCount="indefinite">
    <mpath xlink:href="#path23"></mpath>
  </animateMotion>
</circle><path id="path24" d="M 732.2006115436716 102.92850905443007
c 0 23.497081770663815 -5.749285965162422 6.74916178519067 -12.498447750353092 6.74916178519067
S 707.2037160429654 126.42559082509388 707.2037160429654 102.92850905443007
s 5.749285965162422 -6.74916178519067 12.498447750353092 -6.74916178519067
S 732.2006115436716 79.43142728376625 732.2006115436716 102.92850905443007
z" fill="none" stroke="none"></path>
<circle cx="0" cy="0" r="13.968140375123427" fill="#cccccc">
  <animateMotion begin="-8.610500524105971s" dur="10s" repeatCount="indefinite">
    <mpath xlink:href="#path24"></mpath>
  </animateMotion>
</circle><path id="path25" d="M 1015.5490478051785 453.5307391655182
c 0 30.95870896886516 -7.575003258339347 8.892395129354886 -16.467398387694235 8.892395129354886
S 982.6142510297899 484.48944813438334 982.6142510297899 453.5307391655182
s 7.575003258339347 -8.892395129354886 16.467398387694235 -8.892395129354886
S 1015.5490478051785 422.57203019665303 1015.5490478051785 453.5307391655182
z" fill="none" stroke="none"></path>
<circle cx="0" cy="0" r="9.615968073812281" fill="#f0f0f0">
  <animateMotion begin="-1.6139277593319834s" dur="10s" repeatCount="indefinite">
    <mpath xlink:href="#path25"></mpath>
  </animateMotion>
</circle><path id="path26" d="M 1200.7404871054425 560.3410225202429
c 0 33.71496787890576 -8.249407034200344 9.684086518409101 -17.933493552609445 9.684086518409101
S 1164.8735000002237 594.0559903991486 1164.8735000002237 560.3410225202429
s 8.249407034200344 -9.684086518409101 17.933493552609445 -9.684086518409101
S 1200.7404871054425 526.6260546413371 1200.7404871054425 560.3410225202429
z" fill="none" stroke="none"></path>
<circle cx="0" cy="0" r="11.480758815795497" fill="#f0f0f0">
  <animateMotion begin="-0.26874842093123297s" dur="10s" repeatCount="indefinite">
    <mpath xlink:href="#path26"></mpath>
  </animateMotion>
</circle><path id="path27" d="M 1194.942293777893 401.37207965955815
c 0 31.9562713578806 -7.819087672672912 9.17892900705081 -16.998016679723722 9.17892900705081
S 1160.9462604184453 433.32835101743876 1160.9462604184453 401.37207965955815
s 7.819087672672912 -9.17892900705081 16.998016679723722 -9.17892900705081
S 1194.942293777893 369.41580830167754 1194.942293777893 401.37207965955815
z" fill="none" stroke="none"></path>
<circle cx="0" cy="0" r="11.378352153382007" fill="#dddddd">
  <animateMotion begin="-3.160527906041577s" dur="10s" repeatCount="indefinite">
    <mpath xlink:href="#path27"></mpath>
  </animateMotion>
</circle><path id="path28" d="M 408.4448447399491 412.7700355296196
c 0 34.82037730496317 -8.51987955334205 10.001597736531975 -18.521477289874028 10.001597736531975
S 371.401890160201 447.59041283458276 371.401890160201 412.7700355296196
s 8.51987955334205 -10.001597736531975 18.521477289874028 -10.001597736531975
S 408.4448447399491 377.9496582246564 408.4448447399491 412.7700355296196
z" fill="none" stroke="none"></path>
<circle cx="0" cy="0" r="10.51806871871847" fill="#cccccc">
  <animateMotion begin="-5.676559854862058s" dur="10s" repeatCount="indefinite">
    <mpath xlink:href="#path28"></mpath>
  </animateMotion>
</circle><path id="path29" d="M 1097.1470342274506 1015.1012183402283
c 0 20.996893567065932 -5.137537787686344 6.031022620327448 -11.168560408013793 6.031022620327448
S 1074.8099134114232 1036.0981119072942 1074.8099134114232 1015.1012183402283
s 5.137537787686344 -6.031022620327448 11.168560408013793 -6.031022620327448
S 1097.1470342274506 994.1043247731624 1097.1470342274506 1015.1012183402283
z" fill="none" stroke="none"></path>
<circle cx="0" cy="0" r="7.356898912061868" fill="#e7e7e7">
  <animateMotion begin="-2.55128317758172s" dur="10s" repeatCount="indefinite">
    <mpath xlink:href="#path29"></mpath>
  </animateMotion>
</circle><path id="path30" d="M 568.8061137316598 20.949103052673024
c 0 30.51040569396185 -7.465312031501303 8.763627167414574 -16.228939198915878 8.763627167414574
S 536.348235333828 51.459508746634874 536.348235333828 20.949103052673024
s 7.465312031501303 -8.763627167414574 16.228939198915878 -8.763627167414574
S 568.8061137316598 -9.561302641288826 568.8061137316598 20.949103052673024
z" fill="none" stroke="none"></path>
<circle cx="0" cy="0" r="11.26433188695851" fill="#e7e7e7">
  <animateMotion begin="-5.47900318912043s" dur="10s" repeatCount="indefinite">
    <mpath xlink:href="#path30"></mpath>
  </animateMotion>
</circle><path id="path31" d="M 805.4712878832263 91.08062156818897
c 0 23.444464173968136 -5.7364114468219904 6.734048220182338 -12.470459667004327 6.734048220182338
S 780.5303685492177 114.5250857421571 780.5303685492177 91.08062156818897
s 5.7364114468219904 -6.734048220182338 12.470459667004327 -6.734048220182338
S 805.4712878832263 67.63615739422085 805.4712878832263 91.08062156818897
z" fill="none" stroke="none"></path>
<circle cx="0" cy="0" r="12.663180899594998" fill="#ebebeb">
  <animateMotion begin="-2.6708184959675307s" dur="10s" repeatCount="indefinite">
    <mpath xlink:href="#path31"></mpath>
  </animateMotion>
</circle><path id="path32" d="M 644.2847386291594 722.3920147203517
c 0 22.336954752528023 -5.465425099022813 6.4159338118963465 -11.88135891091916 6.4159338118963465
S 620.522020807321 744.7289694728797 620.522020807321 722.3920147203517
s 5.465425099022813 -6.4159338118963465 11.88135891091916 -6.4159338118963465
S 644.2847386291594 700.0550599678236 644.2847386291594 722.3920147203517
z" fill="none" stroke="none"></path>
<circle cx="0" cy="0" r="12.684254186798881" fill="#dddddd">
  <animateMotion begin="-2.130340493764371s" dur="10s" repeatCount="indefinite">
    <mpath xlink:href="#path32"></mpath>
  </animateMotion>
</circle><path id="path33" d="M 1244.9542227005 184.33963489248552
c 0 36.60533534388977 -8.956624605419837 10.514298449840679 -19.470923055260517 10.514298449840679
S 1206.0123765899789 220.9449702363753 1206.0123765899789 184.33963489248552
s 8.956624605419837 -10.514298449840679 19.470923055260517 -10.514298449840679
S 1244.9542227005 147.73429954859574 1244.9542227005 184.33963489248552
z" fill="none" stroke="none"></path>
<circle cx="0" cy="0" r="7.457767576369778" fill="#cccccc">
  <animateMotion begin="-9.775700719079293s" dur="10s" repeatCount="indefinite">
    <mpath xlink:href="#path33"></mpath>
  </animateMotion>
</circle><path id="path34" d="M 809.5156249490121 415.16992961247195
c 0 20.62381259236249 -5.0462520172801835 5.923861063763694 -10.970113081043877 5.923861063763694
S 787.5753987869243 435.7937422048344 787.5753987869243 415.16992961247195
s 5.0462520172801835 -5.923861063763694 10.970113081043877 -5.923861063763694
S 809.5156249490121 394.5461170201095 809.5156249490121 415.16992961247195
z" fill="none" stroke="none"></path>
<circle cx="0" cy="0" r="8.254916700661497" fill="#cccccc">
  <animateMotion begin="-7.9048755491849265s" dur="10s" repeatCount="indefinite">
    <mpath xlink:href="#path34"></mpath>
  </animateMotion>
</circle><path id="path35" d="M 1037.1113867909758 296.37577280876087
c 0 32.21665834946803 -7.882799383380474 9.253721015272731 -17.136520398653204 9.253721015272731
S 1002.8383459936695 328.5924311582289 1002.8383459936695 296.37577280876087
s 7.882799383380474 -9.253721015272731 17.136520398653204 -9.253721015272731
S 1037.1113867909758 264.1591144592928 1037.1113867909758 296.37577280876087
z" fill="none" stroke="none"></path>
<circle cx="0" cy="0" r="12.907576615250859" fill="#e7e7e7">
  <animateMotion begin="-4.972118813779831s" dur="10s" repeatCount="indefinite">
    <mpath xlink:href="#path35"></mpath>
  </animateMotion>
</circle></g>
</svg>