<?xml version="1.0" encoding="utf-8"?>
<!-- Generator: Adobe Illustrator 22.1.0, SVG Export Plug-In . SVG Version: 6.00 Build 0)  -->
<svg version="1.1" id="Layer_1" xmlns="http://www.w3.org/2000/svg" xmlns:xlink="http://www.w3.org/1999/xlink" x="0px" y="0px"
	 viewBox="20 20 220 220" style="enable-background:new 0 0 360 360;" xml:space="preserve">
<style type="text/css">
	.st0{fill:#000000;}
	.heart {
		fill:#00FF00;
		animation-name:fun;
		animation-duration:10s;
		animation-iteration-count:infinite;
		animation-timing-function:linear;
  	transform-origin: 171px;
		/*animation-delay:3s;*/
	}
	@keyframes fun {
		0% {fill:#00FF00; transform:rotateY(0deg);}
		2% {fill:#FF0000; transform:rotateY(180deg);}
		4% {fill:#0000FF; transform:rotateY(0deg);}
		6% {fill:#FF00FF; transform:rotateY(180deg);}
		8% {fill:#00FFFF; transform:rotateY(0deg);}
		10% {fill:#00FF00; transform:rotateY(0deg);}
		100% {fill:#00FF00; transform:rotateY(0deg);}

	}
</style>
<g>
	<path class="st0" d="M55.6,195.8l-19.9-19.9c-2.5-2.5-3.7-5.2-3.8-8.3c-0.1-3.1,1.1-5.8,3.5-8.2c2.8-2.8,6.3-3.7,10.5-2.6
		c-0.5-2.3-0.5-4.3,0-6c0.4-1.7,1.5-3.3,3.1-4.9c2.5-2.5,5.2-3.6,8.1-3.4c2.9,0.3,5.8,1.9,8.8,4.8l19.2,19.2l-8.2,8.2l-18-18
		c-0.9-0.9-1.6-1.4-2-1.5c-0.4-0.2-0.8,0-1.3,0.4c-0.8,0.8-0.5,1.9,0.8,3.3l18.1,18.2l-8.2,8.2l-18-18c-0.9-0.9-1.6-1.4-2-1.6
		c-0.4-0.1-0.9,0-1.3,0.4c-0.8,0.8-0.5,2,1,3.4l18,18L55.6,195.8z"/>
	<path class="st0" d="M69.4,142.2l7.6-7.6L88.4,146c1.1,1.2,2.2,1.2,3.2,0.3c0.9-0.9,0.8-2-0.3-3.1l-11.4-11.4l7.6-7.6l11.3,11.3
		c2.6,2.6,4,5.7,4,9.3c0,1.7-0.3,3.4-0.9,4.9s-1.5,2.9-2.8,4.2c-2.9,2.9-6.2,4.1-10.1,3.8c-3-0.3-6-1.9-8.9-4.8L69.4,142.2z"/>
	<path class="st0" d="M91.7,104.4l27.7,27.7l-7.6,7.6L84.1,112L91.7,104.4z"/>
	<path class="st0" d="M103.7,92.4l27.7,27.7l-7.6,7.6L96.2,100L103.7,92.4z"/>
	<path class="st0" d="M110.4,82.6c1-1,2.2-1.5,3.7-1.6c1.5,0,2.7,0.4,3.7,1.4c1.1,1,1.6,2.3,1.5,3.7c0,1.4-0.6,2.6-1.7,3.7
		s-2.4,1.7-3.7,1.7c-1.4,0-2.6-0.5-3.7-1.5c-1-1-1.4-2.2-1.4-3.7C108.8,84.9,109.4,83.6,110.4,82.6z M123.2,87.8l20.2,20.2l-7.6,7.6
		l-20.2-20.2L123.2,87.8z"/>
	<path class="st0" d="M140.6,71l8,8c-1,1-1.6,2-1.6,2.8s0.5,1.8,1.6,3.2c3.6,4.3,4.8,8.5,3.7,12.8c-0.6,2.3-2.2,4.7-4.8,7.3l-1,1
		l-8-8l0.3-0.4c1.2-1.2,1.8-2.3,1.8-3.3c0-0.5-0.1-1.1-0.4-1.7c-0.3-0.6-0.7-1.2-1.4-1.8c-1-1-1.8-1.9-2.4-2.7
		c-0.6-0.8-1-1.5-1.4-2.3c-0.6-1.1-0.8-2.5-0.8-4.2c0-2.9,1.4-5.7,4-8.3L140.6,71z"/>
</g>
<g>
	<path class="st0" d="M92.3,195.3l8.8-8.4c3.9,5,5.8,10,5.7,14.9c-0.1,5-2.2,9.5-6.2,13.5c-4.1,4.1-8.9,6.2-14.5,6.2
		s-10.4-2-14.5-6.1s-6.2-9-6.1-14.7c0-5.6,2.1-10.5,6.2-14.7c4.1-4.1,8.9-6.1,14.4-6.1c3.8,0,7.8,1.3,12,4l-8.2,9.4
		c-4-2.1-7.4-1.7-10.2,1c-1.7,1.7-2.6,3.8-2.5,6.2s1,4.5,2.9,6.4c1.8,1.8,3.9,2.8,6.2,2.8c2.3,0,4.3-0.8,6-2.5s2.6-3.6,2.6-5.7
		C94.9,199.6,94,197.4,92.3,195.3z"/>
	<path class="st0" d="M108.4,165.4l8.1,8.1c-0.8,0.2-1.5,0.6-1.9,1c-1.4,1.4-1,3.1,1.1,5.2l9.6,9.6l-7.6,7.6l-11-11
		c-2.9-2.9-4.5-6-4.6-9.4c-0.2-3.3,1.1-6.3,3.8-9C106.6,166.8,107.4,166.1,108.4,165.4z"/>
	<path class="st0" d="M142,154.8l-11.5,11.5c-0.3-0.2-0.6-0.4-1-0.6c-0.4-0.3-0.6-0.5-0.9-0.7c-0.6-0.6-1.2-1.4-1.6-2.3l3.8-3.9
		c-1.8-1.2-3.4-1.1-4.8,0.3c-0.9,0.9-1.3,2.1-1.1,3.5c0.2,1.4,0.9,2.7,2.2,4s2.6,2.1,4,2.3c1.4,0.3,2.6-0.1,3.5-1
		c0.8-0.8,1.1-1.9,1.1-3.3l9.5,0.9c-0.4,3.6-1.9,6.6-4.3,9.1c-1.5,1.5-3.1,2.6-4.9,3.3c-1.8,0.8-3.7,1.2-5.7,1.2
		c-4.1,0-7.6-1.5-10.5-4.4c-3-3-4.4-6.5-4.4-10.6s1.5-7.7,4.5-10.6c2.9-2.9,6.4-4.4,10.4-4.4s7.4,1.5,10.4,4.4L142,154.8z"/>
	<path class="st0" d="M157.7,141.7l7.8,7.9c-0.5,0.8-1,1.4-1.5,1.9c-3.1,3-6.6,4.6-10.6,4.6s-7.5-1.5-10.6-4.5
		c-2.9-2.9-4.4-6.4-4.4-10.5s1.5-7.6,4.4-10.5c3.3-3.3,6.8-4.9,10.6-4.8c3.8,0,7.4,1.7,10.7,5l9.9,9.9l-7.6,7.6l-9.4-9.4
		c-1-1-2.2-1.6-3.3-1.8c-1.2-0.1-2.2,0.3-3.1,1.2c-0.8,0.8-1.2,1.8-1.2,2.9c0,1.2,0.4,2.1,1.2,2.9c0.8,0.8,1.8,1.2,2.9,1.2
		c1.1,0,2-0.4,2.8-1.2C157.1,143.4,157.5,142.7,157.7,141.7z"/>
	<path class="st0" d="M157.6,101.7l7.7,7.7l3.4-3.4l8,8l-3.4,3.4c1.6,1.6,3,2.4,4.1,2.5s2.4-0.5,3.7-1.9l8,8l-0.8,0.9
		c-1.7,1.7-3.7,2.9-6.1,3.7c-2.3,0.7-4.6,0.8-6.9,0.4c-2.9-0.6-5.8-2.3-8.7-5.2L150,109.3L157.6,101.7z"/>
	<path class="st0" d="M166.9,89.2c1-1,2.2-1.5,3.7-1.6c1.5,0,2.7,0.4,3.7,1.4s1.6,2.3,1.5,3.7c0,1.4-0.6,2.6-1.7,3.7
		c-1.1,1.1-2.4,1.7-3.7,1.7c-1.4,0-2.6-0.5-3.7-1.5c-1-1-1.4-2.2-1.4-3.7C165.4,91.5,165.9,90.2,166.9,89.2z M179.7,94.5l20.2,20.2
		l-7.6,7.6L172.2,102L179.7,94.5z"/>
	<path class="st0" d="M199.4,74.8l11.6,30.5l-30.3-11.7l7.2-7.2l7.6,3.3l-3.1-7.8L199.4,74.8z"/>
	<path class="st0" d="M231.4,65.5L219.9,77c-0.3-0.2-0.7-0.4-1-0.7c-0.4-0.2-0.6-0.5-0.8-0.7c-0.7-0.7-1.2-1.4-1.6-2.4l3.8-3.8
		c-1.8-1.2-3.4-1.1-4.8,0.3c-0.9,0.9-1.3,2.1-1.1,3.5s0.9,2.8,2.2,4c1.3,1.3,2.6,2.1,4,2.3c1.4,0.3,2.5-0.1,3.5-1
		c0.8-0.8,1.1-1.9,1-3.3l9.5,0.9c-0.4,3.6-1.9,6.6-4.3,9.1c-1.5,1.5-3.1,2.6-4.9,3.4c-1.7,0.8-3.7,1.1-5.7,1.2
		c-4.1,0-7.6-1.5-10.5-4.4c-3-2.9-4.4-6.5-4.4-10.6s1.5-7.7,4.5-10.7c2.9-2.9,6.4-4.4,10.4-4.4s7.4,1.5,10.3,4.4L231.4,65.5z"/>
</g>
<path class="heart" d="M182.4,38.9c4.6,0,8.4,3.8,8.4,8.4c0,2.1-0.6,4-3.4,6.8l-16.3,16.4l-16.4-16.4c-3.1-3.1-3.7-5-3.7-7
	c0-2.2,0.8-4.2,2.4-5.8c1.5-1.5,3.6-2.4,5.8-2.4s4.3,0.9,5.9,2.5l5.6,5.9l5.7-5.9C177.9,39.9,180.1,38.9,182.4,38.9 M182.4,31.1
	c-4.6,0-8.7,1.9-11.7,5c-2.9-3.1-7-5-11.6-5c-8.9,0-16,7.2-16,16c0,5.1,2.3,8.9,6.1,12.5l22,21.9L193,59.7c3.6-3.6,5.7-7.4,5.7-12.3
	C198.7,38.4,191.4,31.1,182.4,31.1L182.4,31.1z"/>
</svg>
